<svg width="78" height="67" viewBox="0 0 78 67" fill="none" xmlns="http://www.w3.org/2000/svg">
<path d="M35.5 9.44338C37.047 8.55021 38.953 8.55021 40.5 9.44338L58.0167 19.5566C59.5637 20.4498 60.5167 22.1004 60.5167 23.8868V44.1132C60.5167 45.8996 59.5637 47.5502 58.0167 48.4434L40.5 58.5566C38.953 59.4498 37.047 59.4498 35.5 58.5566L17.9833 48.4434C16.4363 47.5502 15.4833 45.8996 15.4833 44.1132V23.8868C15.4833 22.1004 16.4363 20.4498 17.9833 19.5566L35.5 9.44338Z" fill="white" fill-opacity="0.6"/>
<path d="M23.5 16.4434C25.047 15.5502 26.953 15.5502 28.5 16.4434L46.0167 26.5566C47.5637 27.4498 48.5167 29.1004 48.5167 30.8868V51.1132C48.5167 52.8996 47.5637 54.5502 46.0167 55.4434L28.5 65.5566C26.953 66.4498 25.047 66.4498 23.5 65.5566L5.98334 55.4434C4.43633 54.5502 3.48334 52.8996 3.48334 51.1132V30.8868C3.48334 29.1004 4.43633 27.4498 5.98334 26.5566L23.5 16.4434Z" fill="white" fill-opacity="0.4"/>
<path d="M49.5 1.44338C51.047 0.550212 52.953 0.550212 54.5 1.44338L72.0167 11.5566C73.5637 12.4498 74.5167 14.1004 74.5167 15.8868V36.1132C74.5167 37.8996 73.5637 39.5502 72.0167 40.4434L54.5 50.5566C52.953 51.4498 51.047 51.4498 49.5 50.5566L31.9833 40.4434C30.4363 39.5502 29.4833 37.8996 29.4833 36.1132V15.8868C29.4833 14.1004 30.4363 12.4498 31.9833 11.5566L49.5 1.44338Z" fill="white"/>
</svg>
