<svg width="467" height="854" viewBox="0 0 467 854" fill="none" xmlns="http://www.w3.org/2000/svg">
<path d="M68.7969 242.193L68.8085 242.196L68.8201 242.199L75.6954 243.953L75.9426 242.984L89.6931 246.491L89.446 247.46L103.197 250.968L103.444 249.999L117.194 253.506L116.947 254.475L123.822 256.229C126.492 256.91 129.114 257.706 131.682 258.611L132.014 257.668C137.28 259.523 142.323 261.834 147.099 264.553L146.604 265.422C151.383 268.143 155.89 271.278 160.079 274.779L160.72 274.012C164.969 277.564 168.894 281.489 172.446 285.738L171.679 286.379C175.18 290.568 178.315 295.075 181.036 299.854L181.905 299.359C184.624 304.135 186.935 309.178 188.79 314.444L187.847 314.776C188.752 317.345 189.548 319.966 190.229 322.636L191.983 329.511L192.952 329.264L196.459 343.014L195.49 343.261L198.998 357.012L199.967 356.765L203.474 370.515L202.505 370.763L204.259 377.638L204.262 377.65L204.265 377.661L206.184 384.492L207.147 384.222L210.985 397.884L210.022 398.154L213.86 411.816L214.822 411.546L218.66 425.208L217.697 425.478L219.616 432.309C220.361 434.962 220.983 437.63 221.483 440.307L222.466 440.123C223.492 445.611 224.012 451.134 224.045 456.63L223.045 456.636C223.078 462.135 222.617 467.605 221.679 472.983L222.664 473.155C221.713 478.611 220.276 483.973 218.372 489.173L217.433 488.829C215.556 493.956 213.22 498.924 210.442 503.67L211.305 504.175C208.529 508.918 205.317 513.441 201.684 517.681L200.925 517.03C199.154 519.098 197.281 521.098 195.31 523.023L190.232 527.979L190.931 528.695L180.776 538.607L180.078 537.892L169.923 547.805L170.622 548.52L160.467 558.433L159.768 557.718L154.691 562.674L154.682 562.682L154.674 562.691L149.718 567.768L150.433 568.467L140.52 578.621L139.805 577.923L129.892 588.077L130.608 588.776L120.695 598.931L119.979 598.232L115.023 603.309C113.098 605.281 111.098 607.153 109.03 608.925L109.681 609.684C105.441 613.316 100.918 616.529 96.1754 619.305L95.6702 618.442C90.9243 621.22 85.9558 623.556 80.8295 625.433L81.1733 626.372C75.9726 628.276 70.6113 629.713 65.1554 630.664L64.9836 629.679C59.6056 630.617 54.1347 631.078 48.6357 631.045L48.6297 632.045C43.1343 632.012 37.6111 631.491 32.1231 630.466L32.3068 629.483C29.6301 628.983 26.9618 628.361 24.3095 627.616L17.4784 625.697L17.208 626.66L3.54594 622.822L3.81638 621.859L-9.84566 618.022L-10.1161 618.984L-23.7781 615.147L-23.5077 614.184L-30.3387 612.265L-30.3503 612.262L-30.362 612.259L-37.2373 610.505L-37.4844 611.474L-51.235 607.967L-50.9878 606.998L-64.7384 603.49L-64.9855 604.459L-78.7361 600.952L-78.4889 599.983L-85.3642 598.229C-88.0338 597.548 -90.6554 596.752 -93.2235 595.847L-93.556 596.79C-98.8215 594.935 -103.865 592.624 -108.641 589.905L-108.146 589.036C-112.925 586.314 -117.432 583.18 -121.621 579.678L-122.262 580.446C-126.511 576.894 -130.436 572.969 -133.988 568.72L-133.22 568.079C-136.722 563.89 -139.856 559.383 -142.577 554.604L-143.446 555.099C-146.166 550.323 -148.476 545.279 -150.332 540.014L-149.389 539.682C-150.294 537.113 -151.09 534.492 -151.771 531.822L-153.525 524.947L-154.494 525.194L-158.001 511.444L-157.032 511.196L-160.54 497.446L-161.509 497.693L-165.016 483.942L-164.047 483.695L-165.801 476.82L-165.804 476.808L-165.807 476.797L-167.726 469.966L-168.689 470.236L-172.526 456.574L-171.564 456.304L-175.401 442.642L-176.364 442.912L-180.202 429.25L-179.239 428.98L-181.158 422.149C-181.903 419.496 -182.525 416.828 -183.025 414.151L-184.008 414.335C-185.033 408.847 -185.554 403.324 -185.587 397.828L-184.587 397.822C-184.62 392.323 -184.159 386.852 -183.221 381.474L-184.206 381.303C-183.255 375.847 -181.818 370.485 -179.914 365.285L-178.975 365.629C-177.098 360.502 -174.762 355.534 -171.984 350.788L-172.847 350.283C-170.071 345.54 -166.858 341.017 -163.226 336.777L-162.467 337.428C-160.695 335.36 -158.823 333.36 -156.851 331.435L-151.774 326.479L-152.473 325.763L-142.318 315.85L-141.619 316.566L-131.465 306.653L-132.163 305.938L-122.009 296.025L-121.31 296.74L-116.233 291.784L-116.224 291.776L-116.216 291.767L-111.26 286.69L-111.975 285.991L-102.062 275.836L-101.347 276.535L-91.4339 266.38L-92.1495 265.682L-82.2367 255.527L-81.5211 256.226L-76.5647 251.148C-74.6403 249.177 -72.6403 247.305 -70.5723 245.533L-71.2229 244.774C-66.9829 241.141 -62.46 237.929 -57.7173 235.153L-57.2121 236.016C-52.4662 233.238 -47.4977 230.902 -42.3713 229.025L-42.7151 228.086C-37.5145 226.182 -32.1532 224.745 -26.6972 223.794L-26.5255 224.779C-21.1474 223.841 -15.6766 223.38 -10.1775 223.413L-10.1716 222.413C-4.67619 222.446 0.8471 222.966 6.33509 223.992L6.15139 224.975C8.82806 225.475 11.4963 226.097 14.1487 226.842L20.9797 228.761L21.2502 227.798L34.9122 231.636L34.6418 232.599L48.3038 236.436L48.5743 235.474L62.2363 239.311L61.9658 240.274L68.7969 242.193Z" stroke="white" stroke-opacity="0.1" stroke-width="2" stroke-miterlimit="2.3662" stroke-dasharray="15 15"/>
<path d="M117.264 138.327L117.275 138.33L117.287 138.333L124.501 140.173L124.748 139.204L139.175 142.884L138.928 143.853L153.355 147.533L153.602 146.564L168.029 150.244L167.782 151.213L182.209 154.893L182.456 153.924L196.883 157.604L196.636 158.573L211.063 162.253L211.311 161.284L225.738 164.964L225.491 165.933L232.704 167.773C235.374 168.454 237.995 169.249 240.563 170.155L240.896 169.211C246.161 171.067 251.205 173.378 255.981 176.097L255.486 176.966C260.264 179.687 264.772 182.822 268.96 186.323L269.602 185.556C273.851 189.108 277.776 193.033 281.328 197.282L280.56 197.923C284.061 202.112 287.196 206.619 289.917 211.398L290.786 210.903C293.506 215.679 295.816 220.722 297.672 225.988L296.729 226.32C297.634 228.888 298.43 231.51 299.111 234.18L300.951 241.393L301.92 241.146L305.6 255.573L304.631 255.82L308.311 270.247L309.28 270L312.96 284.427L311.991 284.675L315.671 299.102L316.64 298.855L320.32 313.282L319.351 313.529L323.031 327.956L324 327.709L327.68 342.136L326.711 342.383L328.551 349.597L328.554 349.608L328.557 349.62L330.57 356.787L331.533 356.517L335.56 370.851L334.597 371.121L338.624 385.456L339.586 385.185L343.613 399.52L342.65 399.79L346.677 414.124L347.64 413.854L351.666 428.188L350.703 428.458L354.73 442.793L355.693 442.522L359.719 456.857L358.757 457.127L360.77 464.294C361.515 466.947 362.137 469.615 362.637 472.291L363.62 472.108C364.645 477.596 365.166 483.119 365.199 488.614L364.199 488.62C364.232 494.119 363.771 499.59 362.833 504.968L363.818 505.14C362.867 510.596 361.43 515.957 359.526 521.158L358.587 520.814C356.71 525.941 354.374 530.909 351.596 535.655L352.459 536.16C349.683 540.903 346.47 545.426 342.838 549.666L342.079 549.015C340.307 551.083 338.435 553.083 336.463 555.008L331.136 560.208L331.835 560.923L321.18 571.324L320.482 570.608L309.828 581.009L310.526 581.724L299.872 592.125L299.173 591.409L288.519 601.81L289.218 602.526L278.563 612.926L277.865 612.211L267.211 622.611L267.909 623.327L257.255 633.727L256.556 633.012L251.229 638.212L251.221 638.22L251.212 638.229L246.012 643.556L246.727 644.255L236.327 654.909L235.611 654.21L225.211 664.865L225.926 665.563L215.526 676.217L214.81 675.519L204.41 686.173L205.125 686.872L194.725 697.526L194.009 696.827L183.609 707.482L184.324 708.18L173.924 718.835L173.208 718.136L168.008 723.463C166.083 725.435 164.083 727.307 162.015 729.079L162.666 729.838C158.426 733.47 153.903 736.683 149.16 739.459L148.655 738.596C143.909 741.374 138.941 743.71 133.814 745.587L134.158 746.526C128.958 748.43 123.596 749.866 118.14 750.818L117.969 749.833C112.591 750.77 107.12 751.231 101.621 751.199L101.615 752.199C96.1193 752.166 90.596 751.645 85.108 750.62L85.2917 749.637C82.615 749.136 79.9468 748.515 77.2944 747.77L70.1273 745.756L69.8568 746.719L55.5226 742.693L55.793 741.73L41.4587 737.703L41.1883 738.666L26.854 734.639L27.1244 733.677L12.7902 729.65L12.5198 730.613L-1.81451 726.586L-1.54407 725.623L-15.8783 721.597L-16.1488 722.56L-30.483 718.533L-30.2126 717.57L-37.3797 715.557L-37.3913 715.554L-37.403 715.551L-44.6166 713.711L-44.8637 714.68L-59.2909 711L-59.0437 710.031L-73.4709 706.351L-73.718 707.32L-88.1452 703.64L-87.898 702.671L-102.325 698.991L-102.572 699.96L-116.999 696.28L-116.752 695.311L-131.179 691.631L-131.427 692.6L-145.854 688.92L-145.607 687.951L-152.82 686.111C-155.49 685.43 -158.111 684.634 -160.679 683.729L-161.012 684.672C-166.277 682.816 -171.321 680.505 -176.097 677.786L-175.602 676.917C-180.38 674.196 -184.888 671.061 -189.076 667.56L-189.718 668.327C-193.967 664.776 -197.892 660.851 -201.444 656.601L-200.676 655.96C-204.178 651.772 -207.312 647.264 -210.033 642.485L-210.902 642.98C-213.622 638.205 -215.932 633.161 -217.788 627.896L-216.845 627.563C-217.75 624.995 -218.546 622.373 -219.227 619.704L-221.067 612.49L-222.036 612.737L-225.716 598.31L-224.747 598.063L-228.427 583.636L-229.396 583.883L-233.076 569.456L-232.107 569.209L-235.787 554.782L-236.756 555.029L-240.436 540.602L-239.467 540.355L-243.147 525.927L-244.116 526.175L-247.796 511.747L-246.827 511.5L-248.667 504.287L-248.67 504.275L-248.673 504.263L-250.686 497.096L-251.649 497.367L-255.676 483.032L-254.713 482.762L-258.74 468.428L-259.702 468.698L-263.729 454.364L-262.766 454.094L-266.793 439.759L-267.756 440.03L-271.782 425.695L-270.819 425.425L-274.846 411.091L-275.809 411.361L-279.835 397.027L-278.873 396.756L-280.886 389.589C-281.631 386.937 -282.253 384.269 -282.753 381.592L-283.736 381.776C-284.761 376.288 -285.282 370.764 -285.315 365.269L-284.315 365.263C-284.348 359.764 -283.887 354.293 -282.949 348.915L-283.934 348.743C-282.983 343.287 -281.546 337.926 -279.642 332.725L-278.703 333.069C-276.826 327.943 -274.49 322.974 -271.712 318.229L-272.575 317.723C-269.799 312.981 -266.586 308.458 -262.954 304.218L-262.195 304.868C-260.423 302.8 -258.551 300.8 -256.579 298.876L-251.252 293.676L-251.951 292.96L-241.297 282.559L-240.598 283.275L-229.944 272.875L-230.642 272.159L-219.988 261.758L-219.289 262.474L-208.635 252.073L-209.334 251.358L-198.679 240.957L-197.981 241.673L-187.327 231.272L-188.025 230.557L-177.371 220.156L-176.672 220.872L-171.345 215.672L-171.337 215.663L-171.328 215.654L-166.128 210.327L-166.844 209.629L-156.443 198.975L-155.727 199.673L-145.327 189.019L-146.042 188.32L-135.642 177.666L-134.926 178.365L-124.526 167.71L-125.241 167.012L-114.841 156.357L-114.125 157.056L-103.725 146.402L-104.44 145.703L-94.0397 135.049L-93.3241 135.747L-88.1239 130.42C-86.1994 128.449 -84.1994 126.576 -82.1314 124.805L-82.782 124.045C-78.542 120.413 -74.0191 117.201 -69.2764 114.425L-68.7712 115.288C-64.0253 112.51 -59.0568 110.174 -53.9304 108.297L-54.2742 107.358C-49.0736 105.454 -43.7123 104.017 -38.2564 103.066L-38.0846 104.051C-32.7066 103.113 -27.2357 102.652 -21.7367 102.685L-21.7307 101.685C-16.2353 101.718 -10.712 102.238 -5.22403 103.264L-5.40773 104.247C-2.73106 104.747 -0.0627821 105.369 2.58957 106.114L9.75672 108.127L10.0271 107.164L24.3614 111.191L24.091 112.154L38.4252 116.18L38.6957 115.218L53.0299 119.244L52.7595 120.207L67.0938 124.233L67.3642 123.271L81.6985 127.297L81.428 128.26L95.7623 132.287L96.0328 131.324L110.367 135.35L110.097 136.313L117.264 138.327Z" stroke="white" stroke-opacity="0.2" stroke-width="2" stroke-miterlimit="2.3662" stroke-dasharray="15 15"/>
<path d="M192.295 328.187C194.727 327.535 197.221 329.007 197.826 331.452L222.052 429.32C222.641 431.699 221.216 434.112 218.849 434.747C216.416 435.399 213.922 433.927 213.317 431.482L189.092 333.614C188.503 331.234 189.927 328.821 192.295 328.187Z" fill="#C4C4C4"/>
<path d="M192.295 328.187C194.727 327.535 197.221 329.007 197.826 331.452L222.052 429.32C222.641 431.699 221.216 434.112 218.849 434.747C216.416 435.399 213.922 433.927 213.317 431.482L189.092 333.614C188.503 331.234 189.927 328.821 192.295 328.187Z" fill="url(#paint0_linear)"/>
<defs>
<linearGradient id="paint0_linear" x1="191.362" y1="328.437" x2="219.781" y2="434.497" gradientUnits="userSpaceOnUse">
<stop stop-color="#845C98"/>
<stop offset="1" stop-color="#3E22BD"/>
</linearGradient>
</defs>
</svg>
