<svg width="54" height="54" viewBox="0 0 54 54" fill="none" xmlns="http://www.w3.org/2000/svg">
<path d="M47.6138 17.7819C47.2465 17.0924 46.5332 16.6641 45.752 16.6641H39.7603C39.2601 13.8507 36.798 11.707 33.8431 11.707C30.8882 11.707 28.4261 13.8507 27.9259 16.6641H21.8556C22.3317 15.9355 22.6098 15.0662 22.6098 14.1328C22.6098 11.5739 20.528 9.49219 17.9691 9.49219C15.4102 9.49219 13.3285 11.5739 13.3285 14.1328C13.3285 15.0662 13.6065 15.9355 14.0826 16.6641H9.13338C8.35217 16.6641 7.63888 17.0924 7.27164 17.7819C6.9045 18.4714 6.94711 19.3024 7.38302 19.9506L21.5365 40.9975V52.9453C21.5365 53.301 21.7157 53.6327 22.0132 53.8275C22.1876 53.9417 22.3889 54 22.5913 54C22.7341 54 22.8774 53.971 23.0123 53.9123L32.7155 49.6869C33.1002 49.5193 33.349 49.1396 33.349 48.7199V40.9974L47.5024 19.9505C47.9383 19.3024 47.981 18.4714 47.6138 17.7819ZM33.8431 13.8164C35.6294 13.8164 37.1381 15.0233 37.5995 16.6641H30.0869C30.5482 15.0233 32.0569 13.8164 33.8431 13.8164ZM17.9692 11.6016C19.3649 11.6016 20.5005 12.7371 20.5005 14.1328C20.5005 15.5285 19.3649 16.6641 17.9692 16.6641C16.5736 16.6641 15.438 15.5285 15.438 14.1328C15.438 12.7371 16.5736 11.6016 17.9692 11.6016ZM31.419 40.0872C31.3021 40.2611 31.2395 40.466 31.2395 40.6757V48.0289L23.6458 51.3356V41.7304H27.456C28.0385 41.7304 28.5107 41.2582 28.5107 40.6757C28.5107 40.0932 28.0385 39.621 27.456 39.621H23.1528L12.5381 23.8359H33.8431C34.4256 23.8359 34.8978 23.3638 34.8978 22.7812C34.8978 22.1987 34.4256 21.7266 33.8431 21.7266H11.1197L9.1338 18.7734H45.7519L31.419 40.0872Z" fill="white"/>
<path d="M31.042 0C28.4831 0 26.4014 2.08174 26.4014 4.64062C26.4014 7.19951 28.4832 9.28125 31.042 9.28125C33.6009 9.28125 35.6826 7.19951 35.6826 4.64062C35.6826 2.08174 33.6009 0 31.042 0ZM31.042 7.17188C29.6463 7.17188 28.5107 6.03629 28.5107 4.64062C28.5107 3.24496 29.6463 2.10938 31.042 2.10938C32.4377 2.10938 33.5732 3.24496 33.5732 4.64062C33.5732 6.03629 32.4377 7.17188 31.042 7.17188Z" fill="#DCCFFF" fill-opacity="0.6"/>
<path d="M42.3137 5.09766C41.7312 5.09766 41.2591 5.56984 41.2591 6.15234V12.1466C41.2591 12.7292 41.7312 13.2014 42.3137 13.2014C42.8962 13.2014 43.3684 12.7292 43.3684 12.1467V6.15234C43.3684 5.56984 42.8962 5.09766 42.3137 5.09766Z" fill="#DCCFFF" fill-opacity="0.6"/>
<path d="M43.0594 1.94379C42.8632 1.74762 42.5911 1.63477 42.3137 1.63477C42.0364 1.63477 41.7643 1.74762 41.5681 1.94379C41.3719 2.13996 41.2591 2.41207 41.2591 2.68945C41.2591 2.96684 41.3719 3.23895 41.5681 3.43512C41.7643 3.63129 42.0364 3.74414 42.3137 3.74414C42.5911 3.74414 42.8632 3.63129 43.0594 3.43512C43.2556 3.23895 43.3684 2.96684 43.3684 2.68945C43.3684 2.41207 43.2556 2.13996 43.0594 1.94379Z" fill="#DCCFFF" fill-opacity="0.6"/>
<path d="M21.5552 1.34521C20.9727 1.34521 20.5005 1.8174 20.5005 2.3999V6.72412C20.5005 7.30662 20.9727 7.77881 21.5552 7.77881C22.1377 7.77881 22.6099 7.30662 22.6099 6.72412V2.3999C22.6099 1.8174 22.1377 1.34521 21.5552 1.34521Z" fill="#DCCFFF" fill-opacity="0.6"/>
<path d="M7.19265 0C6.61015 0 6.13796 0.472184 6.13796 1.05469V7.92787C6.13796 8.51038 6.61015 8.98256 7.19265 8.98256C7.77515 8.98256 8.24734 8.51038 8.24734 7.92787V1.05469C8.24734 0.472184 7.77515 0 7.19265 0Z" fill="#DCCFFF" fill-opacity="0.6"/>
<path d="M7.93831 11.1376C7.74214 10.9404 7.47003 10.8286 7.19265 10.8286C6.91527 10.8286 6.64316 10.9404 6.44699 11.1376C6.25081 11.3338 6.13796 11.6049 6.13796 11.8833C6.13796 12.1607 6.25081 12.4328 6.44699 12.629C6.64316 12.8251 6.91527 12.938 7.19265 12.938C7.47003 12.938 7.74214 12.8251 7.93831 12.629C8.13449 12.4328 8.24734 12.1607 8.24734 11.8833C8.24734 11.6049 8.13449 11.3338 7.93831 11.1376Z" fill="#DCCFFF" fill-opacity="0.6"/>
<path d="M39.2784 22.0356C39.0822 21.8394 38.8101 21.7266 38.5327 21.7266C38.2543 21.7266 37.9821 21.8394 37.787 22.0356C37.5898 22.2318 37.478 22.5039 37.478 22.7812C37.478 23.0586 37.5898 23.3307 37.787 23.5269C37.9832 23.7231 38.2543 23.8359 38.5327 23.8359C38.8101 23.8359 39.0811 23.7231 39.2784 23.5269C39.4745 23.3307 39.5874 23.0586 39.5874 22.7812C39.5874 22.5039 39.4745 22.2318 39.2784 22.0356Z" fill="#DCCFFF" fill-opacity="0.6"/>
</svg>
