<svg width="64" height="64" viewBox="0 0 64 64" fill="none" xmlns="http://www.w3.org/2000/svg">
<g clip-path="url(#clip0)">
<path d="M14.8965 35.9204V0H11.1465V35.9204C7.4165 36.7749 4.625 40.1182 4.625 44.1035C4.625 48.0889 7.4165 51.4316 11.1465 52.2861V64H14.8965V52.2861C18.6265 51.4321 21.418 48.0889 21.418 44.1035C21.418 40.1182 18.6265 36.7749 14.8965 35.9204ZM13.0215 48.75C10.4595 48.75 8.375 46.6655 8.375 44.1035C8.375 41.541 10.4595 39.457 13.0215 39.457C15.5835 39.457 17.668 41.541 17.668 44.1035C17.668 46.6655 15.5835 48.75 13.0215 48.75Z" fill="white" fill-opacity="0.2"/>
<path d="M33.9087 10.2588V0H30.1587V10.2588C26.4287 11.1133 23.6367 14.4565 23.6367 18.4419C23.6367 22.4268 26.4287 25.7705 30.1587 26.6245V64H33.9087V26.625C37.6382 25.7705 40.4302 22.4272 40.4302 18.4419C40.4302 14.4565 37.6382 11.1133 33.9087 10.2588ZM32.0337 23.0884C29.4712 23.0884 27.3867 21.0039 27.3867 18.4419C27.3867 15.8799 29.4712 13.7954 32.0337 13.7954C34.5957 13.7954 36.6802 15.8799 36.6802 18.4419C36.6802 21.0039 34.5957 23.0884 32.0337 23.0884Z" fill="white" fill-opacity="0.6"/>
<path d="M59.4419 36.604C59.4419 32.6187 56.6504 29.2754 52.9204 28.4209V0H49.1704V28.4209C45.4409 29.2754 42.6489 32.6187 42.6489 36.6035C42.6489 40.5889 45.4409 43.9321 49.1704 44.7866V64H52.9204V44.7866C56.6504 43.9321 59.4419 40.5889 59.4419 36.604ZM51.0454 41.2505C48.4834 41.2505 46.3989 39.166 46.3989 36.604C46.3989 34.042 48.4834 31.957 51.0454 31.957C53.6074 31.957 55.6919 34.042 55.6919 36.604C55.6919 39.166 53.6079 41.2505 51.0454 41.2505Z" fill="white"/>
</g>
<defs>
<clipPath id="clip0">
<rect width="64" height="64" fill="white"/>
</clipPath>
</defs>
</svg>
