<svg width="49" height="49" viewBox="0 0 49 49" fill="none" xmlns="http://www.w3.org/2000/svg">
<g clip-path="url(#clip0)">
<path d="M30.2167 28.5833H29.3183C28.9804 28.5839 28.6782 28.3731 28.5621 28.0557C28.4625 27.7944 28.3555 27.5387 28.2403 27.2856C28.0972 26.9777 28.1625 26.6131 28.4037 26.3742L29.0439 25.7331C29.9944 24.7742 29.9927 23.2279 29.0399 22.2712L26.732 19.9633C25.7741 19.0111 24.2271 19.0111 23.2693 19.9633L22.629 20.6028C22.3895 20.843 22.0256 20.9082 21.7176 20.7661C21.4645 20.651 21.2088 20.544 20.9467 20.4395C20.6277 20.3242 20.4154 20.0208 20.4167 19.6816V18.7833C20.4167 17.4301 19.3198 16.3333 17.9667 16.3333H14.7C13.3469 16.3333 12.25 17.4301 12.25 18.7833V19.6816C12.2506 20.0195 12.0398 20.3217 11.7224 20.4378C11.4611 20.5375 11.2055 20.6444 10.9523 20.7596C10.6443 20.902 10.2803 20.8368 10.0409 20.5963L9.39983 19.956C8.44209 19.0044 6.89573 19.0044 5.93798 19.956L3.63008 22.2712C2.67785 23.2291 2.67785 24.7761 3.63008 25.7339L4.26953 26.3742C4.51065 26.6131 4.57599 26.9777 4.43287 27.2856C4.31772 27.5387 4.21073 27.7944 4.11028 28.0565C3.9934 28.3757 3.68827 28.5867 3.34833 28.5833H2.45C1.09689 28.5833 0 29.6801 0 31.0333V34.2999C0 35.653 1.09689 36.7499 2.45 36.7499H3.34833C3.68623 36.7493 3.9885 36.9601 4.10457 37.2775C4.2042 37.5388 4.31118 37.7944 4.42633 38.0476C4.56945 38.3555 4.50412 38.72 4.263 38.959L3.62273 39.6001C2.67111 40.5578 2.67111 42.1042 3.62273 43.0619L5.93063 45.3698C6.88848 46.3221 8.43545 46.3221 9.3933 45.3698L10.0336 44.7304C10.2731 44.4902 10.637 44.4249 10.945 44.567C11.1981 44.6822 11.4538 44.7892 11.7159 44.8937C12.0365 45.0076 12.2506 45.3113 12.25 45.6516V46.5499C12.25 47.903 13.3469 48.9999 14.7 48.9999H17.9667C19.3198 48.9999 20.4167 47.903 20.4167 46.5499V45.6516C20.4161 45.3137 20.6269 45.0114 20.9442 44.8953C21.2056 44.7957 21.4612 44.6887 21.7144 44.5736C22.0223 44.4312 22.3864 44.4964 22.6258 44.7369L23.2668 45.3772C24.2259 46.3273 25.7719 46.3254 26.7287 45.3731L29.0366 43.0652C29.9888 42.1074 29.9888 40.5604 29.0366 39.6025L28.3971 38.9623C28.156 38.7233 28.0907 38.3587 28.2338 38.0509C28.349 37.7977 28.4559 37.5421 28.5605 37.2799C28.6757 36.9609 28.9791 36.7487 29.3183 36.7499H30.2167C31.5698 36.7499 32.6667 35.653 32.6667 34.2999V31.0333C32.6667 29.6801 31.5698 28.5833 30.2167 28.5833ZM31.0333 34.2999C31.0333 34.7509 30.6677 35.1166 30.2167 35.1166H29.3183C28.3031 35.1204 27.3946 35.7479 27.0317 36.696C26.9451 36.9247 26.8515 37.1498 26.7507 37.3714C26.3309 38.2983 26.5256 39.3882 27.2407 40.1121L27.8794 40.7516C28.1985 41.0703 28.1988 41.5874 27.88 41.9066C27.8798 41.9068 27.8796 41.907 27.8794 41.9072L25.5715 44.2151C25.2526 44.5339 24.7356 44.5339 24.4167 44.2151L23.7764 43.5756C23.0528 42.8599 21.9625 42.665 21.0357 43.0856C20.8144 43.1861 20.589 43.28 20.362 43.3666C19.4145 43.7294 18.7874 44.6371 18.7833 45.6516V46.5499C18.7833 47.0009 18.4177 47.3666 17.9667 47.3666H14.7C14.249 47.3666 13.8833 47.0009 13.8833 46.5499V45.6516C13.8796 44.6364 13.2521 43.7278 12.3039 43.3649C12.0752 43.2783 11.8501 43.1847 11.6285 43.084C10.7016 42.6643 9.61186 42.8592 8.88778 43.574L8.24833 44.2126C7.92963 44.5317 7.41248 44.532 7.09336 44.2132C7.09316 44.213 7.09296 44.2128 7.09275 44.2126L4.78485 41.9072C4.46604 41.5883 4.46604 41.0713 4.78485 40.7524L5.4243 40.1121C6.13939 39.3882 6.33417 38.2983 5.9143 37.3714C5.81385 37.1501 5.71993 36.9247 5.63337 36.6977C5.27138 35.7492 4.36345 35.1211 3.34833 35.1166H2.45C1.999 35.1166 1.63333 34.7509 1.63333 34.2999V31.0333C1.63333 30.5822 1.999 30.2166 2.45 30.2166H3.34833C4.36355 30.2128 5.27209 29.5853 5.635 28.6372C5.72157 28.4085 5.81518 28.1834 5.91593 27.9618C6.3358 27.0349 6.14093 25.945 5.42593 25.221L4.78403 24.5816C4.46492 24.2629 4.46461 23.7457 4.78342 23.4266C4.78363 23.4264 4.78383 23.4262 4.78403 23.426L7.09193 21.1181C7.41084 20.7993 7.92779 20.7993 8.2467 21.1181L8.88697 21.7576C9.61064 22.4733 10.7009 22.6681 11.6277 22.2476C11.849 22.1471 12.0744 22.0532 12.3015 21.9666C13.2502 21.6049 13.8787 20.6969 13.8833 19.6816V18.7833C13.8833 18.3322 14.249 17.9666 14.7 17.9666H17.9667C18.4177 17.9666 18.7833 18.3322 18.7833 18.7833V19.6816C18.7871 20.6968 19.4146 21.6053 20.3628 21.9683C20.5914 22.0548 20.8165 22.1484 21.0382 22.2492C21.965 22.6698 23.0552 22.4749 23.7789 21.7592L24.4183 21.1206C24.7385 20.8039 25.2538 20.8039 25.5739 21.1206L27.8818 23.4285C28.2006 23.7474 28.2006 24.2643 27.8818 24.5832L27.2424 25.2235C26.5274 25.9475 26.3325 27.0373 26.7524 27.9642C26.8528 28.1855 26.9467 28.4109 27.0333 28.638C27.3961 29.5854 28.3038 30.2125 29.3183 30.2166H30.2167C30.6677 30.2166 31.0333 30.5822 31.0333 31.0333V34.2999Z" fill="#DCCFFF" fill-opacity="0.6"/>
<path d="M23.667 32.34C23.6589 32.144 23.645 31.9488 23.6213 31.7544C23.5952 31.5454 23.5641 31.3379 23.5208 31.1346C23.4923 31.0015 23.4547 30.87 23.4188 30.7377C23.373 30.5695 23.3216 30.4037 23.2644 30.2403C23.2244 30.1268 23.1827 30.0141 23.1403 29.9022C23.0351 29.6407 22.9149 29.3854 22.7801 29.1378C22.7695 29.1191 22.763 29.0986 22.7524 29.0799C22.5399 28.7017 22.2939 28.3433 22.0174 28.0092C21.9937 27.9798 21.9667 27.952 21.9422 27.9235C21.8295 27.7903 21.7136 27.6613 21.5919 27.538C21.5282 27.4718 21.4612 27.4098 21.3942 27.3461C21.3126 27.2701 21.2309 27.195 21.1492 27.1231C21.0501 27.0371 20.9492 26.9538 20.8463 26.8732L20.7123 26.7736C19.4486 25.8271 17.9122 25.3158 16.3334 25.3167C16.2517 25.3167 16.17 25.3289 16.0884 25.3322C15.9144 25.3371 15.7396 25.3469 15.5641 25.3648C15.4718 25.3746 15.3787 25.3853 15.2864 25.3983C15.0202 25.4333 14.756 25.4827 14.495 25.5461C10.5627 26.5623 8.19865 30.5739 9.21478 34.5063C9.88445 37.0976 11.909 39.1205 14.5008 39.788C14.5138 39.788 14.5277 39.7921 14.5416 39.7953C14.8237 39.8657 15.1094 39.9203 15.3975 39.9587C15.5877 39.9824 15.778 39.9873 15.9691 39.9962C16.0965 40.0028 16.2141 40.0216 16.3472 40.0216C16.58 40.0216 16.8217 40.006 17.0684 39.9815C17.0945 39.9815 17.1206 39.9742 17.15 39.9709C17.3485 39.9489 17.5494 39.9195 17.7544 39.8786C17.836 39.8631 17.912 39.8427 17.9904 39.8247C18.1341 39.7913 18.277 39.7561 18.424 39.7129C18.5384 39.6786 18.6494 39.6385 18.7613 39.5993C18.8732 39.5601 18.9892 39.5177 19.1051 39.4736C19.2211 39.4295 19.3183 39.3788 19.4236 39.3298C19.5608 39.267 19.6972 39.2049 19.832 39.1314H19.8369C20.599 38.7234 21.303 38.215 21.93 37.6197C22.0993 37.4617 22.2466 37.2814 22.3677 37.084C23.0051 36.0622 23.4239 34.9193 23.5976 33.7275C23.6205 33.5699 23.6409 33.4123 23.6531 33.2514C23.6646 33.1036 23.6727 32.9566 23.676 32.8096C23.676 32.763 23.6825 32.7189 23.6825 32.6724C23.6834 32.5572 23.6719 32.4511 23.667 32.34ZM22.0394 32.8749C22.0394 32.9427 22.0337 33.0105 22.0296 33.0774C22.0149 33.2751 21.9896 33.4727 21.9561 33.6712C21.6509 35.3691 20.5967 36.8391 19.0863 37.6728C18.9851 37.7259 18.8854 37.7757 18.7858 37.8215L18.718 37.8541C18.2435 38.0695 17.7427 38.2211 17.2284 38.3049C17.1925 38.3106 17.1557 38.3172 17.119 38.3221C17.0169 38.3368 16.9165 38.349 16.8168 38.358C16.6853 38.3694 16.553 38.376 16.4183 38.3784C16.3611 38.3784 16.3048 38.3784 16.2476 38.3784C16.0544 38.3762 15.8614 38.3642 15.6694 38.3425L15.5714 38.3311C15.3468 38.3017 15.1241 38.2597 14.9042 38.2053C11.8456 37.4224 10.0007 34.3083 10.7835 31.2496C11.3008 29.2286 12.8779 27.6498 14.8985 27.1305V27.1297C15.3677 27.0113 15.8495 26.9509 16.3334 26.95C16.5668 26.9513 16.8001 26.9671 17.0316 26.9974C17.0937 27.0047 17.1549 27.0161 17.2162 27.0251C17.3926 27.0529 17.5673 27.088 17.7397 27.1321C17.796 27.1468 17.8524 27.1599 17.9079 27.1754C18.3422 27.3007 18.7602 27.4767 19.1533 27.6997C19.2162 27.7364 19.2774 27.7748 19.3395 27.8132C19.4685 27.8949 19.5935 27.9765 19.7168 28.0696C19.783 28.1178 19.8499 28.1652 19.9136 28.2166C20.0739 28.3446 20.2273 28.4809 20.3734 28.625C20.4314 28.6838 20.4845 28.7483 20.5408 28.8095C20.6347 28.9116 20.7262 29.0162 20.8136 29.1264C20.874 29.2024 20.932 29.2808 20.9892 29.36C21.0708 29.4776 21.1525 29.6001 21.226 29.7242C21.2668 29.792 21.3077 29.8581 21.3493 29.9276C21.4547 30.1214 21.5485 30.3213 21.6303 30.5262C21.6629 30.6078 21.6907 30.6895 21.7201 30.7712C21.7732 30.9214 21.8189 31.0733 21.8589 31.2269C21.8793 31.3085 21.9022 31.3812 21.9194 31.4604C21.967 31.6811 22.0016 31.9045 22.0231 32.1293C22.028 32.1889 22.028 32.2493 22.0321 32.309C22.0435 32.4968 22.0468 32.6854 22.0394 32.8749Z" fill="#DCCFFF" fill-opacity="0.6"/>
<path d="M46.55 17.15H43.9816C43.6391 17.1535 43.3327 16.9378 43.2204 16.6143C42.9672 15.8557 42.6607 15.1158 42.3033 14.4003C42.1516 14.0913 42.2148 13.7198 42.4601 13.4783L44.2813 11.6547C45.2372 10.698 45.2372 9.14779 44.2813 8.19117L40.8088 4.72442C39.8522 3.76851 38.302 3.76851 37.3453 4.72442L35.525 6.54395C35.2838 6.78915 34.9128 6.85265 34.6038 6.70157C33.8882 6.34234 33.1481 6.03425 32.389 5.77955C32.0642 5.66838 31.8469 5.36172 31.85 5.01842V2.45C31.85 1.09689 30.7531 0 29.4 0H24.5C23.1469 0 22.05 1.09689 22.05 2.45V5.01842C22.0535 5.36091 21.8379 5.66726 21.5142 5.77955C20.7556 6.03415 20.0157 6.34203 19.3003 6.70075C18.9913 6.85296 18.6196 6.78977 18.3782 6.54395L16.5546 4.72278C15.5969 3.76963 14.0489 3.76963 13.0911 4.72278L9.62521 8.18872C8.66879 9.14544 8.66879 10.6963 9.62521 11.653L12.3031 14.3358C12.627 14.6496 13.144 14.6414 13.4578 14.3174C13.764 14.0013 13.7647 13.4995 13.4595 13.1826L10.78 10.5007C10.4612 10.1818 10.4612 9.66484 10.78 9.34593L14.2459 5.88C14.5648 5.56119 15.0818 5.56119 15.4007 5.88L17.2251 7.70117C17.9633 8.44372 19.0944 8.62931 20.0312 8.16177C20.6781 7.83786 21.3469 7.55978 22.0328 7.32958C23.0228 6.99444 23.6876 6.06365 23.6833 5.01842V2.45C23.6833 1.999 24.049 1.63333 24.5 1.63333H29.4C29.851 1.63333 30.2167 1.999 30.2167 2.45V5.01842C30.2125 6.06344 30.8772 6.99393 31.8671 7.32877C32.5533 7.55907 33.2225 7.83735 33.8696 8.16177C34.8066 8.62686 35.9362 8.44107 36.6749 7.70035L38.4993 5.88C38.8182 5.56119 39.3351 5.56119 39.6541 5.88L43.12 9.34675C43.4383 9.66556 43.4383 10.1819 43.12 10.5007L41.2988 12.3251C40.557 13.0637 40.3715 14.1943 40.8382 15.1312C41.1621 15.7781 41.4402 16.447 41.6704 17.1329C42.0053 18.1231 42.9362 18.7878 43.9816 18.7833H46.55C47.001 18.7833 47.3667 19.149 47.3667 19.6V24.5C47.3667 24.951 47.001 25.3167 46.55 25.3167H43.9816C42.9365 25.3125 42.0061 25.9772 41.6712 26.9672C41.441 27.6534 41.1626 28.3225 40.8382 28.9696C40.3723 29.9065 40.5582 31.0365 41.2996 31.7749L43.1208 33.5993C43.4396 33.9182 43.4396 34.4352 43.1208 34.7541L39.6532 38.22C39.3344 38.5383 38.8181 38.5383 38.4993 38.22L35.8157 35.5422C35.5019 35.2181 34.9849 35.21 34.661 35.5238C34.3369 35.8376 34.3288 36.3546 34.6426 36.6785C34.6491 36.6853 34.6558 36.692 34.6626 36.6986L37.3453 39.3764C38.302 40.3323 39.8522 40.3323 40.8088 39.3764L44.2748 35.9113C45.2312 34.9546 45.2312 33.4037 44.2748 32.447L42.456 30.625C42.211 30.3837 42.1476 30.0128 42.2984 29.7038C42.6576 28.9882 42.9657 28.2481 43.2204 27.489C43.3316 27.1642 43.6383 26.9469 43.9816 26.95H46.55C47.9031 26.95 49 25.8531 49 24.5V19.6C49 18.2469 47.9031 17.15 46.55 17.15Z" fill="white"/>
<path d="M34.4568 14.5433C30.3083 10.4035 23.5917 10.4035 19.4432 14.5433C19.1299 14.8677 19.1389 15.3848 19.4633 15.6981C19.7798 16.0037 20.2815 16.0037 20.598 15.6981C24.0826 12.1664 29.7704 12.1283 33.302 15.6129C36.8337 19.0976 36.8718 24.7853 33.3872 28.317C33.359 28.3456 33.3306 28.374 33.302 28.4021C32.9776 28.7155 32.9686 29.2325 33.282 29.5569C33.5954 29.8813 34.1124 29.8903 34.4368 29.5769C34.4435 29.5704 34.4503 29.5637 34.4568 29.5569C38.5966 25.4085 38.5966 18.6918 34.4568 14.5433Z" fill="white"/>
</g>
<defs>
<clipPath id="clip0">
<rect width="49" height="49" fill="white"/>
</clipPath>
</defs>
</svg>
