<svg width="57" height="39" viewBox="0 0 57 39" fill="none" xmlns="http://www.w3.org/2000/svg">
<path d="M56.992 35.4783C56.9877 35.3545 56.9833 35.23 56.979 35.1051C56.9745 34.9802 56.9699 34.8549 56.9653 34.729L56.9617 34.6348L56.9599 34.5876L56.9594 34.5758L56.9582 34.4702L56.9578 34.4652L56.9563 34.4457L56.9443 34.2893C56.928 34.0805 56.9117 33.8709 56.8955 33.6612L56.8831 33.5025L56.8643 33.2967C56.8514 33.1599 56.8385 33.0231 56.8256 32.8866C56.8122 32.7503 56.7988 32.6142 56.7854 32.4786C56.7785 32.4109 56.7717 32.3433 56.7649 32.2758C56.7566 32.2133 56.7483 32.151 56.74 32.0886C56.6717 31.5941 56.6107 31.1081 56.5235 30.6409C56.4824 30.4071 56.4444 30.1773 56.4017 29.9532C56.3551 29.7297 56.3095 29.5112 56.2651 29.2984C56.1809 28.8725 56.0753 28.4748 55.9862 28.1071C55.9634 28.0154 55.9411 27.9254 55.9193 27.8376C55.8951 27.7502 55.8713 27.665 55.8482 27.5818C55.8013 27.4158 55.7569 27.2583 55.715 27.1105C55.6724 26.9628 55.6348 26.8242 55.5956 26.6971C55.5551 26.5705 55.5181 26.4541 55.4845 26.3489C55.4348 26.1945 55.3928 26.0644 55.3598 25.9616C55.3109 25.8099 55.1506 25.7246 54.9972 25.7683L45.3605 28.5145C45.2136 28.5563 45.1226 28.7026 45.1506 28.8527C45.161 28.9088 45.173 28.973 45.1863 29.0448C45.2 29.1171 45.2153 29.1972 45.2318 29.2844C45.2475 29.3718 45.2598 29.4676 45.2756 29.5688C45.291 29.6702 45.3075 29.7781 45.3248 29.8918C45.3333 29.9486 45.3433 30.0065 45.3512 30.0664C45.358 30.1264 45.365 30.1879 45.3722 30.2506C45.399 30.5016 45.4391 30.7708 45.4569 31.0594C45.4688 31.203 45.481 31.3505 45.4935 31.5011C45.5028 31.6521 45.5075 31.8069 45.5156 31.9636C45.5364 32.2764 45.5325 32.6021 45.5385 32.9305L45.5399 33.0528L45.5355 33.1611C45.5331 33.2333 45.5306 33.3056 45.5281 33.3782C45.5262 33.4503 45.5242 33.5228 45.5222 33.5953L45.5199 33.7037L45.5133 33.8598C45.5045 34.07 45.4954 34.28 45.4865 34.4892L45.4798 34.646L45.4789 34.6656L45.4787 34.6704C45.4788 34.694 45.4769 34.4837 45.4775 34.5745L45.4767 34.5822L45.4739 34.6132L45.4682 34.6751C45.4607 34.7574 45.4533 34.8393 45.4459 34.9212C45.4388 35.0027 45.4316 35.0841 45.4246 35.1649C45.415 35.2454 45.4055 35.3256 45.3959 35.4051C45.3754 35.5641 45.3628 35.7216 45.3375 35.8751C45.3153 36.0286 45.2934 36.1794 45.2721 36.3272C45.2465 36.4739 45.2216 36.6174 45.1973 36.7571C45.1754 36.8969 45.146 37.0316 45.1198 37.1619C45.0924 37.292 45.0707 37.4183 45.0423 37.5381C45.0146 37.658 44.9881 37.7727 44.9628 37.8819C44.9504 37.9358 44.9382 37.9883 44.9265 38.0394C44.9144 38.0832 44.9027 38.1257 44.8912 38.1669C44.8845 38.1921 44.8781 38.2158 44.8716 38.2402H56.6579C56.8159 38.2402 56.9474 38.1162 56.9534 37.9584C56.9535 37.9574 56.9535 37.9565 56.9536 37.9556C56.9633 37.7361 56.9734 37.5107 56.9837 37.2803C56.9881 37.0502 56.9926 36.815 56.9972 36.5758C57.0039 36.3369 56.9966 36.0941 56.996 35.8485C56.9946 35.7258 56.9933 35.6024 56.992 35.4783Z" fill="#DCCFFF" fill-opacity="0.8"/>
<path d="M53.9274 23.1074C54.0855 23.0438 54.1576 22.8607 54.0847 22.7066C54.0523 22.6382 54.0144 22.5581 53.9715 22.4676C53.931 22.3825 53.8863 22.2883 53.8377 22.1858C53.7747 22.0576 53.7067 21.919 53.6339 21.7708C53.5606 21.6233 53.4826 21.4663 53.4003 21.3008C53.3586 21.2147 53.3176 21.1438 53.2747 21.063C53.232 20.984 53.1883 20.9033 53.1436 20.8208C53.0538 20.6561 52.9619 20.484 52.8633 20.3077C52.7615 20.1334 52.6563 19.953 52.5481 19.7676C52.4938 19.6751 52.4388 19.5814 52.3831 19.4866C52.3249 19.3932 52.2659 19.2987 52.2063 19.2032C52.0865 19.0129 51.964 18.8185 51.8396 18.6208C51.577 18.2338 51.3156 17.8291 51.0238 17.4352C50.9521 17.336 50.8801 17.2364 50.8079 17.1366L50.6993 16.987L50.5863 16.8398C50.4351 16.644 50.2833 16.4476 50.1315 16.2511C49.977 16.0569 49.8171 15.8667 49.6605 15.6759C49.5813 15.5811 49.5045 15.4849 49.4237 15.3922C49.3427 15.2999 49.2619 15.2078 49.1813 15.1161C49.1007 15.0247 49.0205 14.9335 48.9407 14.8428C48.8613 14.7518 48.7812 14.6623 48.6987 14.5758C48.5352 14.4018 48.3738 14.2299 48.2151 14.0607C48.0561 13.8921 47.8914 13.7337 47.7348 13.5753C47.577 13.4177 47.4236 13.263 47.267 13.1193C47.1122 12.9743 46.9614 12.8333 46.8158 12.6969C46.6707 12.5601 46.5225 12.4359 46.3845 12.3129C46.2454 12.1912 46.112 12.0747 45.9852 11.9638C45.8551 11.8566 45.7317 11.7549 45.6158 11.6594C45.4997 11.5642 45.3912 11.4752 45.2908 11.3929C45.1902 11.3109 45.0941 11.2398 45.0093 11.1735C44.8858 11.0787 44.7815 10.9987 44.6987 10.9351C44.5724 10.8381 44.3923 10.8588 44.2908 10.9816L39.1186 17.2424C39.0211 17.3605 39.0294 17.533 39.1382 17.6408C39.1814 17.6835 39.2314 17.7329 39.2875 17.7886C39.3413 17.8426 39.403 17.8999 39.4663 17.9667C39.5295 18.0335 39.5978 18.1058 39.6708 18.1829C39.7439 18.2597 39.8217 18.3415 39.9036 18.4276C39.9826 18.5165 40.0657 18.6102 40.1524 18.7078C40.238 18.8063 40.3316 18.9041 40.4207 19.0132C40.5105 19.1212 40.6033 19.2328 40.6988 19.3476C40.7961 19.4603 40.8889 19.5826 40.985 19.7062C41.0801 19.8307 41.1818 19.9534 41.2773 20.0849C41.3729 20.2161 41.47 20.3494 41.5684 20.4844C41.6185 20.5508 41.6661 20.6201 41.713 20.6905C41.7604 20.7603 41.808 20.8304 41.8558 20.9008C41.9037 20.9709 41.9519 21.0413 42.0001 21.112C42.0482 21.1827 42.0923 21.2566 42.1388 21.3289C42.2301 21.4748 42.3248 21.6186 42.4145 21.7655C42.502 21.9139 42.5895 22.0624 42.6767 22.2101L42.7421 22.3204L42.8033 22.433C42.8442 22.5078 42.885 22.5824 42.9256 22.6567C43.0933 22.95 43.2348 23.2525 43.383 23.5366C43.4508 23.6823 43.5174 23.8255 43.5827 23.9657C43.6154 24.0356 43.6476 24.1047 43.6796 24.1729C43.7091 24.2424 43.7383 24.311 43.7671 24.3787C43.825 24.5135 43.8813 24.6448 43.9358 24.7715C43.9862 24.9001 44.0348 25.0243 44.0814 25.1435C44.1048 25.203 44.1276 25.2612 44.15 25.3182C44.1711 25.3737 44.1972 25.4339 44.2113 25.4801C44.2446 25.5773 44.2761 25.6695 44.3057 25.7561C44.336 25.8422 44.3643 25.9226 44.3905 25.9971C44.4249 26.0997 44.4564 26.1938 44.4849 26.2789C44.5167 26.3739 44.5446 26.4579 44.5686 26.5299C44.6225 26.6915 44.8014 26.7739 44.9595 26.7104L53.9274 23.1074Z" fill="#DCCFFF" fill-opacity="0.6"/>
<path d="M27.5884 11.9246C27.6668 11.9353 27.7534 11.9471 27.8479 11.96C27.9417 11.9764 28.0432 11.9941 28.1516 12.013C28.2599 12.0316 28.3751 12.0513 28.4965 12.0722C28.6019 12.0897 28.7112 12.1151 28.8248 12.1389L32.089 5.46199C31.9272 5.43673 31.7667 5.41165 31.6094 5.38711C31.5017 5.37109 31.3956 5.35267 31.2899 5.33947C31.1843 5.32669 31.0799 5.31403 30.9769 5.30155C30.7711 5.27713 30.571 5.25331 30.3775 5.23033C30.1835 5.21371 29.996 5.19763 29.816 5.18221C29.636 5.16841 29.4644 5.15023 29.3 5.14243C29.136 5.13439 28.9804 5.12671 28.8341 5.11951C28.688 5.11261 28.5514 5.10619 28.4251 5.10019C28.2986 5.09815 28.1825 5.09629 28.0775 5.09461C27.9299 5.09281 27.8047 5.09131 27.7042 5.09011C27.5449 5.08819 27.4131 5.21269 27.4055 5.37181L27.1078 11.5864C27.1005 11.7395 27.211 11.8729 27.3628 11.8937C27.4275 11.9026 27.5029 11.9129 27.5884 11.9246Z" fill="#DCCFFF" fill-opacity="0.4"/>
<path d="M36.3615 15.3468C36.4493 15.4106 36.5324 15.471 36.6105 15.528C36.6888 15.584 36.762 15.6365 36.8298 15.685C36.8591 15.7052 36.9075 15.7419 36.9471 15.7713C36.9878 15.8017 37.0266 15.8307 37.0634 15.8582C37.1438 15.9181 37.2147 15.971 37.2754 16.0163C37.412 16.1182 37.6058 16.0838 37.6993 15.9413L41.9611 9.44957C42.0547 9.30713 42.0093 9.11555 41.8614 9.03077C41.7957 8.99309 41.7189 8.94905 41.6321 8.89919C41.5922 8.87627 41.5502 8.85221 41.506 8.82689C41.4579 8.79971 41.4077 8.77127 41.3553 8.74163C41.2341 8.67479 41.1029 8.60261 40.9628 8.52539C40.8227 8.44901 40.6734 8.36777 40.5162 8.28203C40.3664 8.20697 40.209 8.12807 40.0446 8.04569C39.8796 7.96517 39.7113 7.87559 39.5307 7.79429C39.351 7.71198 39.1653 7.62684 38.9744 7.5393C38.7847 7.44978 38.5845 7.36848 38.3814 7.28316C38.1774 7.19964 37.9721 7.10832 37.7577 7.02774C37.7034 7.00716 37.6483 6.98634 37.5936 6.96558L35.7551 14.9454C35.8567 15.0093 35.9525 15.077 36.0468 15.138C36.1566 15.2108 36.2616 15.2805 36.3615 15.3468Z" fill="#DCCFFF" fill-opacity="0.6"/>
<path d="M21.866 11.8921C21.9483 11.8812 22.0291 11.8678 22.1098 11.8593C22.1905 11.8511 22.2703 11.843 22.3489 11.835C22.5058 11.8187 22.6583 11.8029 22.806 11.7875C22.9541 11.7776 23.0972 11.768 23.2345 11.7588C23.303 11.7541 23.3701 11.7495 23.4357 11.745C23.5011 11.7406 23.5666 11.7351 23.6228 11.735C23.7385 11.7319 23.8484 11.7291 23.9515 11.7264C24.0544 11.7232 24.1505 11.7201 24.2395 11.7173C24.3493 11.7166 24.4501 11.7159 24.541 11.7153C24.6412 11.7148 24.7298 11.7143 24.8055 11.7139C24.9759 11.713 25.1098 11.5687 25.0987 11.3986L24.715 5.54445C24.7038 5.37441 24.5522 5.24883 24.3832 5.27019C24.308 5.27967 24.2203 5.29077 24.1208 5.30331C24.0287 5.31501 23.9266 5.32803 23.8155 5.34219C23.6842 5.36169 23.5423 5.38269 23.3905 5.40519C23.2393 5.42823 23.0782 5.45277 22.9085 5.47863C22.8216 5.49087 22.7416 5.50713 22.6577 5.52297C22.574 5.53893 22.4884 5.55531 22.4009 5.57199C22.2264 5.60571 22.0447 5.64087 21.8564 5.67723C21.6696 5.71977 21.4764 5.76381 21.2779 5.80899C21.1788 5.83173 21.0784 5.85483 20.9767 5.87823C20.8752 5.90199 20.7734 5.93103 20.6701 5.95773C20.464 6.01263 20.2536 6.06873 20.0395 6.12573C19.8276 6.18963 19.6122 6.25455 19.3941 6.32031C19.2854 6.35397 19.1755 6.38571 19.0663 6.42165C18.9576 6.45879 18.8481 6.49605 18.7383 6.53355C18.6287 6.57111 18.5187 6.60879 18.4083 6.64665C18.2979 6.68421 18.1873 6.72195 18.0783 6.76497C17.8596 6.84843 17.64 6.93225 17.4205 7.01607C17.2019 7.10163 16.9869 7.19643 16.7715 7.28613C16.6641 7.33191 16.5564 7.37606 16.4502 7.42304C16.3448 7.4717 16.2397 7.52019 16.135 7.56855C16.0306 7.61691 15.9265 7.66514 15.823 7.71308C15.7195 7.76096 15.6164 7.80812 15.5162 7.86014C15.3151 7.96166 15.1164 8.06198 14.9211 8.16062C14.7256 8.2586 14.5394 8.36672 14.3544 8.46626C14.1703 8.56766 13.9892 8.66438 13.8184 8.7686C13.6466 8.87048 13.4795 8.96966 13.3179 9.06554C13.1558 9.1601 13.0054 9.26222 12.858 9.3545C12.7117 9.44828 12.5715 9.53822 12.4381 9.62372C12.3076 9.7133 12.1838 9.79826 12.0674 9.87812C11.9514 9.95804 11.8428 10.0328 11.7423 10.102C11.642 10.1712 11.5533 10.2397 11.4715 10.299C11.3607 10.3809 11.2661 10.4507 11.1895 10.5072C11.0616 10.6016 11.0316 10.7799 11.121 10.9113L13.5519 14.4853C13.6384 14.6125 13.8076 14.6524 13.9416 14.5767C14.0033 14.5419 14.0763 14.5007 14.1595 14.4538C14.232 14.4136 14.3105 14.3662 14.3991 14.3201C14.4877 14.2739 14.5834 14.2241 14.6857 14.1708C14.7877 14.1175 14.8963 14.0607 15.0108 14.0009C15.1272 13.9451 15.2495 13.8864 15.3772 13.8252C15.5055 13.7654 15.6356 13.697 15.7759 13.6373C15.9152 13.5761 16.0592 13.513 16.2073 13.448C16.3539 13.3805 16.5091 13.3215 16.6662 13.2585C16.8241 13.1973 16.9823 13.1281 17.148 13.0696C17.3129 13.0101 17.4807 12.9497 17.6504 12.8885C17.7346 12.8565 17.8212 12.8295 17.908 12.8017C17.9947 12.7738 18.0818 12.7458 18.1692 12.7177C18.2565 12.6895 18.3441 12.6611 18.4319 12.6327C18.5202 12.6059 18.6098 12.5819 18.6988 12.5562C18.8775 12.5068 19.0551 12.4519 19.2351 12.406C19.4152 12.3614 19.5953 12.3168 19.7747 12.2725C19.8637 12.2488 19.9541 12.2302 20.044 12.2117C20.1338 12.1928 20.2233 12.174 20.3125 12.1552C20.4015 12.1363 20.4901 12.1175 20.5783 12.0988C20.6667 12.0811 20.7555 12.0675 20.8432 12.0517C21.0185 12.0213 21.1917 11.9912 21.3621 11.9617C21.5331 11.9381 21.7012 11.9148 21.866 11.8921Z" fill="#DCCFFF" fill-opacity="0.4"/>
<path d="M5.29047 16.5129C5.22675 16.603 5.16279 16.6936 5.09853 16.7845C5.03445 16.8753 4.97013 16.9665 4.90557 17.058C4.84131 17.1496 4.78119 17.2447 4.71867 17.3381C4.59543 17.5264 4.46931 17.7131 4.34859 17.9035C4.23069 18.0954 4.11279 18.2873 3.99537 18.4786L3.90777 18.6217L3.82462 18.7672C3.76936 18.8639 3.71428 18.9605 3.65938 19.0565C3.43498 19.4377 3.24004 19.8274 3.04192 20.1974C2.9497 20.3861 2.85898 20.5717 2.77018 20.7534C2.72614 20.8441 2.68252 20.934 2.6395 21.0227C2.599 21.1126 2.55904 21.2014 2.51956 21.2891C2.44096 21.4642 2.36452 21.6346 2.29054 21.7994C2.22154 21.9662 2.15482 22.1274 2.0908 22.2821C2.02804 22.4372 1.96462 22.5841 1.91056 22.7266C1.85722 22.8692 1.80658 23.0045 1.75894 23.1317C1.71154 23.2587 1.6672 23.3776 1.62622 23.4875C1.58836 23.5985 1.55362 23.7004 1.52218 23.7925C1.48138 23.9136 1.44634 24.0175 1.41772 24.1026C1.36702 24.253 1.44412 24.4161 1.59232 24.4729L3.85492 25.3403C3.99891 25.3955 4.16109 25.3311 4.22763 25.1919C4.26063 25.1231 4.30005 25.0406 4.34535 24.9458C4.38291 24.8678 4.42443 24.7813 4.46973 24.6872C4.51785 24.5944 4.56987 24.4942 4.62549 24.3869C4.68093 24.2801 4.73985 24.1661 4.80201 24.0461C4.86465 23.9265 4.93677 23.8038 5.00835 23.6742C5.08083 23.5453 5.15637 23.411 5.23455 23.2719C5.31693 23.1355 5.40207 22.9944 5.48967 22.8493C5.53329 22.7769 5.57751 22.7035 5.62227 22.6292C5.66937 22.5563 5.71707 22.4827 5.76525 22.408C5.86161 22.2592 5.96007 22.1072 6.06021 21.9526C6.27297 21.6514 6.48105 21.3341 6.71619 21.0282C6.77361 20.9509 6.83127 20.8733 6.88911 20.7955L6.97581 20.6786L7.06665 20.5644C7.18761 20.4121 7.30905 20.2592 7.43049 20.1064C7.55415 19.9555 7.68249 19.8084 7.80723 19.6601C7.87047 19.5865 7.93119 19.5113 7.99593 19.4398C8.06073 19.3683 8.12529 19.297 8.18961 19.226C8.25381 19.1551 8.3177 19.0845 8.3813 19.0142C8.4443 18.9435 8.5079 18.8741 8.57396 18.8075C8.70392 18.673 8.83232 18.54 8.95862 18.4091C9.08468 18.2785 9.21626 18.1573 9.34046 18.0348C9.46562 17.9132 9.5867 17.7932 9.71138 17.6832C9.83402 17.5716 9.9533 17.4631 10.0687 17.358C10.1832 17.2523 10.3012 17.158 10.4101 17.0633C10.5198 16.9699 10.6249 16.8804 10.7249 16.7953C10.8231 16.7176 10.9162 16.6439 11.0037 16.5745C11.0907 16.5053 11.1721 16.4404 11.2474 16.3804C11.2819 16.3519 11.3287 16.3177 11.3683 16.2876C11.4088 16.2569 11.4475 16.2278 11.4843 16.2001C11.5642 16.1397 11.6349 16.0864 11.6953 16.0408C11.8314 15.9382 11.8524 15.7424 11.7418 15.6128L9.16568 12.5949C9.05504 12.4653 8.85842 12.4554 8.73572 12.5736C8.68118 12.6262 8.6174 12.6875 8.54528 12.7571C8.51216 12.7889 8.47724 12.8226 8.44064 12.8578C8.40338 12.894 8.36792 12.9269 8.32172 12.9742C8.23341 13.0633 8.13795 13.1597 8.03589 13.2626C7.93437 13.3657 7.82631 13.4753 7.71237 13.5908C7.60647 13.7056 7.49511 13.8262 7.37895 13.952C7.26423 14.0788 7.14051 14.2065 7.02081 14.3465C6.90063 14.4859 6.77643 14.6299 6.64869 14.7779C6.51939 14.9242 6.39429 15.0814 6.26559 15.2408C6.13785 15.401 6.00321 15.5609 5.87475 15.7304C5.74665 15.8998 5.61645 16.0721 5.48469 16.2466C5.41773 16.333 5.35371 16.4223 5.29047 16.5129Z" fill="#DCCFFF" fill-opacity="0.2"/>
<path d="M0.609299 27.0941C0.594239 27.1682 0.576599 27.2551 0.556619 27.3533C0.538319 27.4434 0.518039 27.5432 0.495959 27.6519C0.474299 27.763 0.453119 27.8942 0.429479 28.0281C0.406199 28.1634 0.381479 28.3073 0.355439 28.4589C0.342839 28.5345 0.328439 28.6127 0.316499 28.6914C0.305879 28.7697 0.295079 28.8498 0.283979 28.9314C0.241739 29.2586 0.18612 29.6106 0.15408 29.9867C0.13548 30.1741 0.1164 30.3665 0.0968998 30.5633C0.0808198 30.7602 0.0700799 30.9619 0.0562199 31.1664C0.0238199 31.5751 0.01788 31.9989 0.00437999 32.4277L0 32.5888L0.000779998 32.7507C0.00138 32.8587 0.00198 32.967 0.00257999 33.0755C0.00323999 33.1839 0.00389999 33.2925 0.00449999 33.4012L0.00551999 33.5642L0.01176 33.7273C0.02058 33.9444 0.0293999 34.1615 0.0382199 34.3777L0.0448799 34.5394L0.0469199 34.5918L0.0497999 34.6308L0.0555599 34.7088C0.0632399 34.8127 0.0708599 34.9163 0.0784798 35.0196C0.0860998 35.1228 0.0937198 35.2256 0.10122 35.3279C0.1116 35.4345 0.12186 35.5408 0.13218 35.6464C0.14256 35.7519 0.15288 35.8567 0.16314 35.9608C0.1683 36.0127 0.17346 36.0646 0.17862 36.1161C0.18504 36.1669 0.19146 36.2175 0.19782 36.2679C0.22338 36.4689 0.248519 36.6666 0.273119 36.8601C0.302819 37.0528 0.331859 37.2414 0.360059 37.4248C0.386459 37.6083 0.420479 37.7857 0.451739 37.9572C0.454319 37.971 0.456899 37.9845 0.459419 37.9981C0.485519 38.1384 0.607559 38.24 0.750178 38.24H1.54764C1.71792 38.24 1.85304 38.0967 1.84302 37.9267C1.84032 37.8814 1.83756 37.8355 1.8345 37.7893C1.82454 37.6239 1.81254 37.4534 1.8087 37.2774C1.80294 37.1017 1.79706 36.9213 1.791 36.7368C1.78986 36.5525 1.78872 36.3642 1.78758 36.1726C1.78728 36.1248 1.78698 36.0767 1.78668 36.0286C1.7877 35.9811 1.78878 35.9334 1.78986 35.8855C1.79196 35.79 1.79406 35.6937 1.79622 35.5968C1.79832 35.5001 1.80048 35.4027 1.80264 35.3049C1.80744 35.2024 1.81218 35.0994 1.81704 34.9961C1.82184 34.8927 1.8267 34.7889 1.8315 34.6848L1.83516 34.6066L1.83696 34.5675L1.8372 34.5626C1.8372 34.5502 1.83744 34.5741 1.83756 34.57L1.83828 34.5605L1.83978 34.5417L1.8519 34.3903C1.86798 34.1884 1.88412 33.9859 1.90032 33.7833L1.91268 33.6316L1.93014 33.4804C1.94178 33.3797 1.95336 33.2791 1.96494 33.1788C1.97646 33.0784 1.98798 32.9784 1.99944 32.8786L2.01654 32.7294L2.03868 32.5811C2.0994 32.1869 2.151 31.7991 2.2266 31.4278C2.26206 31.2418 2.2938 31.0588 2.33022 30.8807C2.36988 30.7033 2.40863 30.5297 2.44637 30.3608C2.51621 30.0223 2.60675 29.7077 2.68043 29.416C2.69933 29.3432 2.71781 29.2719 2.73587 29.2023C2.75495 29.1337 2.77553 29.0688 2.79449 29.0045C2.83271 28.8765 2.86901 28.7551 2.90309 28.6409C2.93795 28.5258 2.96657 28.4229 2.99993 28.3197C3.03491 28.2143 3.06695 28.1178 3.09599 28.0305C3.12755 27.9353 3.15545 27.8513 3.17933 27.7793C3.23303 27.6177 3.13925 27.4445 2.97461 27.4007L0.975478 26.8676C0.810778 26.8236 0.643259 26.9271 0.609299 27.0941Z" fill="#DCCFFF" fill-opacity="0.1"/>
<path d="M23.2389 37.456C23.8893 37.7739 24.5783 37.9246 25.2566 37.9246C26.9593 37.9246 28.5956 36.976 29.3938 35.3433C29.5475 35.029 29.6665 34.682 29.7439 34.3552L34.3985 14.1523L36.1711 6.45831L37.2693 1.6921C37.3971 1.1374 36.9559 0.759521 36.5132 0.759521C36.254 0.759521 35.9944 0.889062 35.848 1.1884L33.6133 5.75937L30.3166 12.5025L21.1262 31.3011C20.01 33.5842 20.9559 36.3399 23.2389 37.456ZM25.4273 30.95C26.6728 30.95 27.6825 31.9596 27.6825 33.2052C27.6825 34.4507 26.6728 35.4605 25.4273 35.4605C24.1817 35.4605 23.172 34.4507 23.172 33.2052C23.172 31.9595 24.1817 30.95 25.4273 30.95Z" fill="white"/>
</svg>
