<svg width="86" height="30" viewBox="0 0 86 30" fill="none" xmlns="http://www.w3.org/2000/svg">
<path d="M34.8345 15.0002C34.8345 13.7984 34.3666 12.6684 33.5167 11.8189L23.9203 2.2223C22.665 0.96707 20.9963 0.275879 19.2212 0.275879H3.95264C1.77325 0.275879 0 2.04896 0 4.22852V25.7718C0 27.9514 1.77325 29.7245 3.95264 29.7245H19.2212C20.9963 29.7245 22.665 29.0333 23.9203 27.7781L33.5167 18.1815C34.3666 17.3319 34.8345 16.202 34.8345 15.0002ZM31.7352 16.4L22.1388 25.9966C21.3594 26.776 20.3232 27.205 19.2212 27.205H3.95264C3.16235 27.205 2.51953 26.5621 2.51953 25.7718V4.22852C2.51953 3.43822 3.16252 2.79541 3.95264 2.79541H19.2212C20.3232 2.79541 21.3594 3.22457 22.1388 4.00378L31.7352 13.6003C32.1091 13.9742 32.315 14.4714 32.315 15.0002C32.315 15.5289 32.1091 16.0261 31.7352 16.4Z" fill="white"/>
<path d="M60.4174 15.0002C60.4174 13.7984 59.9494 12.6684 59.0995 11.8189L49.5031 2.2223C48.2477 0.96707 46.5789 0.275879 44.8038 0.275879H29.5308C28.835 0.275879 28.271 0.83975 28.271 1.53564C28.271 2.23137 28.835 2.79541 29.5308 2.79541H44.8038C45.9059 2.79541 46.9421 3.22457 47.7214 4.00378L57.3178 13.6003C57.6917 13.9742 57.8977 14.4714 57.8977 15.0002C57.8977 15.5289 57.6917 16.0261 57.3178 16.4L47.7214 25.9964C46.9421 26.7758 45.9059 27.205 44.8038 27.205H29.5308C28.835 27.205 28.271 27.769 28.271 28.4647C28.271 29.1606 28.835 29.7245 29.5308 29.7245H44.8038C46.5788 29.7245 48.2477 29.0333 49.5031 27.7781L59.0995 18.1815C59.9494 17.3319 60.4174 16.202 60.4174 15.0002Z" fill="#DCCFFF" fill-opacity="0.6"/>
<path d="M84.6821 11.8189L75.0857 2.2223C73.8305 0.96707 72.1617 0.275879 70.3866 0.275879H55.1136C54.4178 0.275879 53.8538 0.83975 53.8538 1.53564C53.8538 2.23137 54.4178 2.79541 55.1136 2.79541H70.3866C71.4887 2.79541 72.5249 3.22457 73.3042 4.00378L82.9006 13.6003C83.2745 13.9742 83.4805 14.4714 83.4805 15.0002C83.4805 15.5289 83.2745 16.0261 82.9006 16.4L73.3042 25.9966C72.5249 26.776 71.4887 27.205 70.3866 27.205H55.1136C54.4178 27.205 53.8538 27.769 53.8538 28.4647C53.8538 29.1606 54.4178 29.7245 55.1136 29.7245H70.3866C72.1617 29.7245 73.8305 29.0333 75.0857 27.7781L84.6821 18.1815C85.532 17.3318 86 16.2018 86 15.0002C86 13.7985 85.532 12.6684 84.6821 11.8189Z" fill="#DCCFFF" fill-opacity="0.6"/>
<path d="M21.9124 11.4164L15.3975 17.9311L13.5954 16.1289C13.1034 15.637 12.3057 15.637 11.8139 16.1289C11.3219 16.6209 11.3219 17.4186 11.8139 17.9104L14.5068 20.6033C14.7527 20.8494 15.0752 20.9723 15.3975 20.9723C15.7198 20.9723 16.0423 20.8494 16.2883 20.6033L23.6938 13.1979C24.1858 12.7059 24.1858 11.9084 23.6938 11.4164C23.202 10.9244 22.4043 10.9243 21.9124 11.4164Z" fill="white"/>
<path d="M40.9803 20.9725C41.3027 20.9725 41.6252 20.8495 41.8711 20.6035L49.2767 13.1981C49.7686 12.7061 49.7686 11.9086 49.2767 11.4166C48.7848 10.9246 47.9872 10.9246 47.4952 11.4166L40.9803 17.9313L39.1782 16.1291C38.6862 15.6371 37.8885 15.6371 37.3967 16.1291C36.9047 16.6211 36.9047 17.4188 37.3967 17.9106L40.0896 20.6035C40.3355 20.8494 40.6578 20.9725 40.9803 20.9725Z" fill="#DCCFFF" fill-opacity="0.6"/>
<path d="M67.2364 20.9725C67.5705 20.9725 67.891 20.8396 68.1271 20.6035L75.5325 13.1981C76.0245 12.7061 76.0245 11.9086 75.5325 11.4166C75.0405 10.9246 74.2429 10.9246 73.751 11.4166L67.2364 17.9313L65.4342 16.1291C64.9423 15.6371 64.1446 15.6371 63.6528 16.1291C63.1608 16.6211 63.1608 17.4188 63.6528 17.9106L66.3456 20.6035C66.5818 20.8396 66.9021 20.9725 67.2364 20.9725Z" fill="#DCCFFF" fill-opacity="0.6"/>
</svg>
