<svg width="76" height="57" viewBox="0 0 76 57" fill="none" xmlns="http://www.w3.org/2000/svg">
<path d="M4.38509 26.8774H8.78255V25.8666C8.78255 24.5188 9.05469 23.2322 9.54948 22.056C10.0628 20.8368 10.8112 19.7341 11.7451 18.8151C12.6729 17.8961 13.7861 17.1487 15.0169 16.6402C16.2044 16.1501 17.5033 15.8806 18.8639 15.8806H36.361V15.7948V9.58874C36.0765 9.48459 35.8044 9.35594 35.5446 9.20891C35.1797 8.99448 34.8457 8.73717 34.5488 8.44311C34.0911 7.98975 33.7201 7.4445 33.4665 6.83799C33.2253 6.25598 33.0892 5.61271 33.0892 4.95106C33.0892 4.28328 33.2253 3.64614 33.4665 3.06413C33.7201 2.45762 34.0911 1.91237 34.5488 1.45901C35.0065 1.00566 35.557 0.638076 36.1693 0.386894C36.7568 0.141838 37.4063 0.0131836 38.0742 0.0131836C38.7422 0.0131836 39.3916 0.147964 39.9792 0.386894C40.5915 0.638076 41.1419 1.00566 41.5996 1.45901C42.0573 1.91237 42.4284 2.45762 42.682 3.06413C42.9232 3.64614 43.0592 4.28941 43.0592 4.95106C43.0592 5.61884 42.9232 6.25598 42.682 6.83799C42.4284 7.4445 42.0573 7.98975 41.5996 8.44311L41.5749 8.46761C41.2842 8.74943 40.9564 9.00061 40.6038 9.20891C40.3441 9.36207 40.0719 9.49072 39.7874 9.58874V15.7948V15.8806H57.2845C58.6452 15.8806 59.944 16.1501 61.1315 16.6402C62.3685 17.1487 63.4756 17.89 64.4033 18.8151C65.3311 19.7341 66.0856 20.8368 66.599 22.056C67.0938 23.2322 67.3659 24.5188 67.3659 25.8666V26.8774H71.6087C72.1963 26.8774 72.7653 26.9938 73.2848 27.2083C73.8229 27.4288 74.3053 27.7535 74.7074 28.1517L74.7321 28.1762C75.1279 28.5744 75.4434 29.0401 75.6598 29.5608C75.8763 30.0754 75.9938 30.6329 75.9938 31.2211V42.8122C75.9938 43.3942 75.8763 43.9578 75.6598 44.4724C75.4372 44.9993 75.1094 45.4833 74.7074 45.8815C73.9157 46.6657 72.8148 47.1558 71.6087 47.1558H67.3597C67.3412 48.4485 67.069 49.6921 66.5928 50.8255C66.0794 52.0508 65.3311 53.1474 64.3971 54.0664C63.4694 54.9853 62.3561 55.7328 61.1253 56.2413C59.9378 56.7314 58.639 57.0009 57.2783 57.0009H18.8639C17.5033 57.0009 16.2044 56.7314 15.0169 56.2413C13.7799 55.7328 12.6729 54.9915 11.7451 54.0664C10.8174 53.1474 10.0628 52.0447 9.54948 50.8255C9.07324 49.6921 8.80111 48.4485 8.78255 47.1558H4.38509C3.79753 47.1558 3.22852 47.0394 2.70898 46.825C2.1709 46.6044 1.68848 46.2797 1.28646 45.8815L1.26172 45.857C0.865885 45.4588 0.550456 44.9932 0.333984 44.4724C0.117513 43.9578 0 43.3942 0 42.8122V31.2211C0 30.639 0.117513 30.0754 0.333984 29.5608C0.556641 29.0278 0.88444 28.5499 1.28646 28.1517C1.68848 27.7535 2.1709 27.4288 2.70898 27.2083C3.22852 26.9938 3.79134 26.8774 4.38509 26.8774ZM29.069 45.5201C28.9824 45.4527 28.9082 45.3792 28.8402 45.2934C28.6361 45.0483 28.5309 44.7665 28.5247 44.4786C28.5186 44.1906 28.6113 43.9027 28.8031 43.6515C28.8711 43.5657 28.9453 43.4861 29.0381 43.4126C29.3597 43.1492 29.7865 43.0082 30.207 43.0021C30.6276 42.996 31.0482 43.1185 31.3822 43.3697C32.5326 44.2458 33.6706 44.8829 34.7962 45.3056C35.9095 45.7222 37.0104 45.9183 38.099 45.906C39.1937 45.8938 40.3008 45.6671 41.4326 45.2444C42.5768 44.8155 43.7272 44.1723 44.8962 43.3452C45.2425 43.1001 45.6693 42.9899 46.0898 43.0082C46.5104 43.0266 46.931 43.1737 47.2464 43.4493C47.3268 43.5229 47.401 43.6025 47.4691 43.6944C47.6546 43.9517 47.7412 44.2458 47.7227 44.5337C47.7041 44.8217 47.5866 45.1035 47.3763 45.3424C47.3021 45.422 47.2155 45.5017 47.1165 45.5691C45.6507 46.6167 44.1787 47.4131 42.6882 47.9584C41.1914 48.5036 39.6761 48.7916 38.1423 48.8099C36.6022 48.8283 35.0807 48.571 33.5654 48.0258C32.0625 47.4866 30.5658 46.6596 29.0938 45.5384L29.069 45.5201ZM25.2158 26.7855C25.5869 26.7855 25.958 26.8223 26.3105 26.8958C26.6693 26.9693 27.0218 27.0735 27.362 27.2144C27.7083 27.3553 28.0361 27.5268 28.3392 27.729C28.6361 27.925 28.9144 28.1456 29.1618 28.3907L29.1989 28.4213C29.4587 28.6786 29.6937 28.9604 29.8978 29.2667L29.9102 29.2851C30.1081 29.5792 30.2813 29.8977 30.4173 30.2347C30.5596 30.5717 30.6647 30.9209 30.7389 31.2762C30.807 31.6315 30.8503 31.993 30.8503 32.3606C30.8503 32.7281 30.8132 33.0957 30.7389 33.4449C30.6647 33.8003 30.5596 34.1495 30.4173 34.4925C30.2751 34.8356 30.1019 35.1603 29.8978 35.4605C29.6875 35.773 29.4525 36.0548 29.1989 36.306C28.6855 36.8144 28.0609 37.231 27.362 37.5129C27.0218 37.6538 26.6693 37.7579 26.3044 37.8314C25.9456 37.8988 25.5807 37.9356 25.2096 37.9356C24.8385 37.9356 24.4675 37.8988 24.1149 37.8314C23.7562 37.7579 23.4036 37.6538 23.0573 37.5129C22.7109 37.372 22.3831 37.2004 22.0801 36.9982C21.7647 36.7899 21.4801 36.5571 21.2266 36.306C20.9668 36.0487 20.7318 35.7668 20.5277 35.4605L20.5153 35.4421C20.3174 35.1481 20.1442 34.8295 20.0081 34.4925C19.8659 34.1556 19.7607 33.8064 19.6865 33.4511C19.6185 33.0957 19.5814 32.7343 19.5814 32.3667C19.5814 31.9991 19.6185 31.6315 19.6865 31.2823C19.7607 30.927 19.8659 30.5778 20.0081 30.2408C20.1504 29.8977 20.3236 29.573 20.5277 29.2729C20.738 28.9604 20.973 28.6786 21.2266 28.4274C21.4863 28.1701 21.7708 27.9373 22.0801 27.7351L22.0986 27.7229C22.3955 27.5268 22.7171 27.3553 23.0573 27.2205C23.3975 27.0796 23.75 26.9755 24.1087 26.9019C24.4736 26.8223 24.8447 26.7855 25.2158 26.7855ZM26.4281 29.4689C26.2425 29.3954 26.0446 29.3341 25.8405 29.2912C25.6426 29.2545 25.4323 29.23 25.2158 29.23C24.9994 29.23 24.7891 29.2484 24.5911 29.2912C24.3809 29.3341 24.1829 29.3893 24.0036 29.4689C23.8119 29.5485 23.6325 29.6404 23.4593 29.7568C23.2923 29.8671 23.1315 30.0019 22.9769 30.1551C22.8223 30.3082 22.6924 30.4675 22.5749 30.6329C22.4574 30.8045 22.3646 30.9821 22.2842 31.1659C22.21 31.3497 22.1481 31.5457 22.1048 31.7479C22.0677 31.944 22.043 32.1523 22.043 32.3667C22.043 32.5811 22.0615 32.7894 22.1048 32.9855C22.1481 33.1938 22.2038 33.3898 22.2842 33.5675C22.3646 33.7574 22.4574 33.935 22.5749 34.1005C22.6862 34.2659 22.8223 34.4252 22.9769 34.5783C23.1315 34.7315 23.2923 34.8601 23.4593 34.9765C23.6263 35.0868 23.8119 35.1848 24.0036 35.2645L24.0221 35.2767C24.2015 35.3502 24.387 35.4054 24.5911 35.4421C24.7891 35.4789 24.9994 35.5034 25.2158 35.5034C25.4323 35.5034 25.6426 35.485 25.8405 35.4421C26.0508 35.3993 26.2425 35.3441 26.4281 35.2706C26.6198 35.191 26.7992 35.0929 26.9723 34.9827C27.1393 34.8724 27.3001 34.7376 27.4548 34.5844C27.6094 34.4313 27.7393 34.272 27.8568 34.1066C27.9743 33.935 28.0671 33.7574 28.1475 33.5736C28.2217 33.3898 28.2835 33.1937 28.3268 32.9916C28.3639 32.7955 28.3887 32.5872 28.3887 32.3728C28.3887 32.1584 28.3701 31.9501 28.3268 31.754C28.2835 31.5458 28.2279 31.3497 28.1475 31.172C28.0671 30.9821 27.9743 30.8045 27.8568 30.6329C27.7393 30.4614 27.6094 30.3021 27.4609 30.1551L27.43 30.1244C27.2878 29.9896 27.1393 29.8671 26.9785 29.763C26.8053 29.6404 26.6198 29.5424 26.4281 29.4689ZM50.9326 26.7855C51.3037 26.7855 51.6748 26.8223 52.0273 26.8958C52.3861 26.9693 52.7386 27.0735 53.0788 27.2144C53.4251 27.3553 53.7529 27.5268 54.056 27.729C54.3467 27.925 54.6188 28.1395 54.8662 28.3845C54.8786 28.3968 54.8971 28.409 54.9095 28.4213C55.1693 28.6786 55.4043 28.9604 55.6084 29.2667L55.6208 29.2851C55.8187 29.5792 55.9919 29.8977 56.1279 30.2347C56.2702 30.5717 56.3753 30.9209 56.4495 31.2762C56.5176 31.6315 56.5547 31.993 56.5547 32.3606C56.5547 32.7281 56.5176 33.0957 56.4495 33.4449C56.3753 33.8003 56.2702 34.1495 56.1279 34.4925C55.9857 34.8356 55.8125 35.1603 55.6084 35.4605C55.3981 35.773 55.1631 36.0548 54.9095 36.306C54.6497 36.5633 54.3652 36.7961 54.056 36.9982L54.0374 37.0105C53.7344 37.2065 53.4189 37.3781 53.0788 37.5129C52.7386 37.6538 52.3861 37.7579 52.0212 37.8314C51.6624 37.8988 51.2975 37.9356 50.9264 37.9356C50.5553 37.9356 50.1842 37.8988 49.8317 37.8314C49.473 37.7579 49.1204 37.6538 48.7741 37.5129C48.4216 37.3658 48.0938 37.1943 47.7969 36.9982L47.766 36.9737C47.4691 36.7716 47.1908 36.551 46.9434 36.306C46.6836 36.0487 46.4486 35.7668 46.2445 35.4605L46.2321 35.4421C46.0342 35.1481 45.861 34.8295 45.7249 34.4925C45.5827 34.1556 45.4775 33.8064 45.4033 33.4511C45.3353 33.0957 45.292 32.7343 45.292 32.3667C45.292 31.9991 45.3291 31.6315 45.4033 31.2823C45.4775 30.927 45.5827 30.5778 45.7249 30.2408C45.8672 29.8977 46.0404 29.573 46.2445 29.2729C46.4548 28.9604 46.6898 28.6786 46.9434 28.4274C47.1969 28.1762 47.4876 27.9434 47.7969 27.7351C48.0999 27.533 48.4277 27.3614 48.7741 27.2144C49.1143 27.0735 49.4668 26.9693 49.8255 26.8958C50.1966 26.8223 50.5615 26.7855 50.9326 26.7855ZM52.151 29.4689C51.9655 29.3954 51.7676 29.3341 51.5635 29.2912C51.3656 29.2545 51.1553 29.23 50.9388 29.23C50.7223 29.23 50.512 29.2484 50.3141 29.2912C50.1038 29.3341 49.9059 29.3893 49.7266 29.4689C49.5348 29.5485 49.3555 29.6404 49.1823 29.7568C49.0153 29.8671 48.8545 30.0019 48.6999 30.1551C48.5452 30.3082 48.4154 30.4675 48.2979 30.6329C48.1803 30.8045 48.0876 30.9821 48.0072 31.1659C47.9329 31.3497 47.8711 31.5457 47.8278 31.7479C47.7907 31.944 47.766 32.1523 47.766 32.3667C47.766 32.5811 47.7845 32.7894 47.8278 32.9855C47.8711 33.1938 47.9268 33.3898 48.0072 33.5675C48.0876 33.7574 48.1803 33.935 48.2979 34.1005C48.4092 34.2659 48.5452 34.4252 48.6999 34.5783C48.8545 34.7315 49.0153 34.8601 49.1823 34.9765C49.3493 35.0868 49.5348 35.1848 49.7266 35.2645L49.7451 35.2767C49.9245 35.3502 50.11 35.4054 50.3141 35.4421C50.512 35.4789 50.7223 35.5034 50.9388 35.5034C51.1553 35.5034 51.3656 35.485 51.5635 35.4421C51.7738 35.3993 51.9655 35.3441 52.151 35.2706C52.3428 35.191 52.5221 35.0929 52.6953 34.9827C52.8685 34.8663 53.0293 34.7376 53.1777 34.5906C53.3324 34.4374 53.4622 34.2781 53.5798 34.1127C53.6973 33.9412 53.79 33.7635 53.8704 33.5797C53.9447 33.3959 54.0065 33.1999 54.0498 32.9977C54.0869 32.8017 54.1117 32.5934 54.1117 32.3789C54.1117 32.1645 54.0931 31.9562 54.0498 31.7602C54.0065 31.5519 53.9508 31.3558 53.8704 31.1782C53.79 30.9882 53.6973 30.8106 53.5798 30.639C53.4622 30.4675 53.3324 30.3082 53.1839 30.1612L53.153 30.1306C53.0107 29.9958 52.8623 29.8732 52.7015 29.7691C52.5221 29.6404 52.3428 29.5424 52.151 29.4689ZM11.2503 28.1027V47.0149C11.2503 48.0319 11.4544 48.9999 11.8255 49.8882C12.2152 50.8071 12.778 51.6403 13.4831 52.3387C14.1882 53.0372 15.0293 53.6008 15.957 53.9806C16.8477 54.3482 17.8311 54.5504 18.8577 54.5504H57.2845C58.3112 54.5504 59.2884 54.3482 60.1852 53.9806C61.113 53.5947 61.9541 53.0372 62.6592 52.3387C63.3643 51.6403 63.9333 50.8071 64.3167 49.8882C64.6878 49.006 64.8919 48.0319 64.8919 47.0149V25.8666C64.8919 24.8496 64.6878 23.8755 64.3167 22.9933C63.9271 22.0743 63.3643 21.2411 62.6592 20.5427C61.9541 19.8443 61.113 19.2807 60.1852 18.9009C59.2946 18.5333 58.3112 18.3311 57.2845 18.3311H18.8639C17.8372 18.3311 16.86 18.5333 15.9632 18.9009C15.0355 19.2868 14.1943 19.8443 13.4893 20.5427C12.7842 21.2411 12.2152 22.0743 11.8317 22.9933C11.4606 23.8755 11.2565 24.8496 11.2565 25.8666V28.1027H11.2503ZM8.78255 29.3219H4.38509C4.12533 29.3219 3.87793 29.3709 3.65527 29.4628C3.42025 29.5608 3.20996 29.7017 3.0306 29.8794L3.00586 29.8977C2.83887 30.0693 2.7028 30.2715 2.61003 30.492C2.51725 30.7126 2.46777 30.9576 2.46777 31.2149V42.8061C2.46777 43.0634 2.51725 43.3084 2.61003 43.529C2.70898 43.7618 2.85124 43.9701 3.0306 44.1478C3.37695 44.4908 3.85319 44.7053 4.37891 44.7053H8.77637V29.3219H8.78255ZM71.6149 29.3219H67.3721V44.7053H71.6149C71.8747 44.7053 72.1221 44.6562 72.3447 44.5643C72.5798 44.4663 72.79 44.3254 72.9694 44.1478C73.1488 43.9701 73.291 43.7618 73.39 43.529C73.4828 43.3084 73.5322 43.0634 73.5322 42.8061V31.2211C73.5322 30.9637 73.4828 30.7187 73.39 30.4981C73.291 30.2653 73.1488 30.057 72.9694 29.8794C72.79 29.7017 72.5798 29.5608 72.3447 29.4628C72.1221 29.377 71.8747 29.3219 71.6149 29.3219Z" fill="#663FD1"/>
</svg>
